<?xml version="1.0" encoding="UTF-8" standalone="no"?>
<svg
   xmlns:dc="http://purl.org/dc/elements/1.1/"
   xmlns:cc="http://creativecommons.org/ns#"
   xmlns:rdf="http://www.w3.org/1999/02/22-rdf-syntax-ns#"
   xmlns:svg="http://www.w3.org/2000/svg"
   xmlns="http://www.w3.org/2000/svg"
   xmlns:sodipodi="http://sodipodi.sourceforge.net/DTD/sodipodi-0.dtd"
   xmlns:inkscape="http://www.inkscape.org/namespaces/inkscape"
   version="1.1"
   viewBox="0 0 784.78723 125.38722"
   width="1569.5745"
   height="250.77444"
   id="svg114"
   sodipodi:docname="dependent-types-typechecker.svg"
   inkscape:version="0.92.5 (2060ec1f9f, 2020-04-08)">
  <metadata
     id="metadata118">
    <rdf:RDF>
      <cc:Work
         rdf:about="">
        <dc:format>image/svg+xml</dc:format>
        <dc:type
           rdf:resource="http://purl.org/dc/dcmitype/StillImage" />
        <dc:title></dc:title>
      </cc:Work>
    </rdf:RDF>
  </metadata>
  <sodipodi:namedview
     pagecolor="#ffffff"
     bordercolor="#666666"
     borderopacity="1"
     objecttolerance="10"
     gridtolerance="10"
     guidetolerance="10"
     inkscape:pageopacity="0"
     inkscape:pageshadow="2"
     inkscape:window-width="3840"
     inkscape:window-height="2091"
     id="namedview116"
     showgrid="false"
     inkscape:zoom="1.6400708"
     inkscape:cx="611.08623"
     inkscape:cy="-175.80576"
     inkscape:window-x="0"
     inkscape:window-y="41"
     inkscape:window-maximized="1"
     inkscape:current-layer="svg114" />
  <!-- svg-source:excalidraw -->
  <defs
     id="defs4">
    <style
       id="style2">
      @font-face {
        font-family: &quot;Virgil&quot;;
        src: url(&quot;https://excalidraw.com/Virgil.woff2&quot;);
      }
      @font-face {
        font-family: &quot;Cascadia&quot;;
        src: url(&quot;https://excalidraw.com/Cascadia.woff2&quot;);
      }
    </style>
  </defs>
  <g
     transform="translate(1.7771211,2.140098)"
     id="g8"
     style="stroke-linecap:round">
    <path
       d="m -1.27,-1.64 c 70.76,0.48 140.96,-0.38 179.01,2.67 M -0.86,0.87 C 46.84,-2.14 92.45,-1.36 177,0.23 m -1.22,-1.71 c 0.57,29.43 -0.34,55.54 -1,124.22 m 1.56,-123.32 c 0.99,34.46 0.48,68.36 -0.42,121.75 m -0.35,0.51 c -49.01,-2 -95.9,-2.76 -176.24,-2.48 m 176.7,1.78 C 117.08,119.09 60.91,118.87 -0.48,120.01 m 2.32,2.09 C -0.43,88.16 -0.09,51.64 0.2,-1.32 M 0.94,120.76 C -0.06,75.6 1.63,29.82 0.38,-0.89"
       id="path6"
       inkscape:connector-curvature="0"
       style="fill:none;stroke:#000000;stroke-width:1" />
  </g>
  <g
     transform="translate(43.777121,43.640098)"
     id="g12">
    <text
       x="0"
       y="20"
       font-size="20px"
       style="font-size:20px;font-family:Cascadia, 'Segoe UI Emoji';direction:ltr;text-anchor:start;white-space:pre;fill:#000000"
       direction="ltr"
       id="text10">Parsing</text>
  </g>
  <g
     transform="translate(285.77712,7.640098)"
     id="g16"
     style="stroke-linecap:round">
    <path
       d="M -0.37,0.37 C 42.38,-0.44 84.23,1.55 172.88,-0.7 M -0.3,-0.72 C 45.74,-1.45 92.46,-1.16 173.88,0.87 M 173.85,0.5 C 173.65,25.75 173.1,52.22 173,115 M 172.14,0 c -0.43,44.45 0.85,88.33 1.33,115.32 m -2.4,-1.37 c -52.37,3.77 -101.75,4.02 -169.41,-0.7 m 170.62,2.06 c -48.2,0.8 -94.79,1.17 -172.56,0.12 m 2.05,0.84 C 0.89,87.82 2.45,56.24 1.59,1.26 M 0.69,115.41 C 0.39,91.21 -0.88,67.72 -0.82,-0.09"
       id="path14"
       inkscape:connector-curvature="0"
       style="fill:none;stroke:#000000;stroke-width:1" />
  </g>
  <g
     id="g30"
     style="stroke-linecap:round"
     transform="translate(-40.222879,-7.859902)">
    <g
       transform="translate(216.59658,72.724845)"
       id="g20">
      <path
         d="M -1.07,-0.61 C 16.83,-0.68 89.01,-0.9 107.21,-0.62 M 0.58,1.68 c 17.71,0.1 87.64,-0.7 105.49,-1.11"
         id="path18"
         inkscape:connector-curvature="0"
         style="fill:none;stroke:#000000;stroke-width:1" />
    </g>
    <g
       transform="translate(216.59658,72.724845)"
       id="g24">
      <path
         d="M 77.03,10.68 C 85.08,9.42 95.96,5.1 106.17,1.98 M 78.11,11.56 C 87.69,6.9 99.5,2.83 105.36,-0.16"
         id="path22"
         inkscape:connector-curvature="0"
         style="fill:none;stroke:#000000;stroke-width:1" />
    </g>
    <g
       transform="translate(216.59658,72.724845)"
       id="g28">
      <path
         d="m 76.7,-9.84 c 8.11,4.68 19.09,6.28 29.47,11.82 M 77.78,-8.96 c 9.55,3.01 21.47,6.62 27.58,8.8"
         id="path26"
         inkscape:connector-curvature="0"
         style="fill:none;stroke:#000000;stroke-width:1" />
    </g>
  </g>
  <g
     transform="translate(318.80091,51.225503)"
     id="g34">
    <text
       x="0"
       y="20"
       font-size="20px"
       style="font-size:20px;font-family:Cascadia, 'Segoe UI Emoji';direction:ltr;text-anchor:start;white-space:pre;fill:#000000"
       direction="ltr"
       id="text32">Elaboration</text>
  </g>
  <g
     transform="translate(573.77712,6.140098)"
     id="g38"
     style="stroke-linecap:round">
    <path
       d="m 0.56,-1.25 c 83.27,0.75 167.46,0.32 209.52,2.3 M 0.14,0.31 c 79.62,1.68 157.18,1.34 209.95,0.33 m -0.28,-2.2 c -1.09,39.05 -0.48,74.79 -0.05,115.33 m 0.75,-113.79 c -0.23,29.45 -1.08,57.55 -1.05,114.46 m -0.52,-1.66 c -49.1,1 -96.94,0.14 -207.57,2.14 m 208.49,-1.25 C 149.6,111.92 90.9,113.47 0.67,113.75 m -0.5,-0.54 C 1.6,86.53 2.55,60.19 1.98,-1.73 M -0.23,114.8 C -1.49,81.89 -0.13,51.07 0.01,-0.35"
       id="path36"
       inkscape:connector-curvature="0"
       style="fill:none;stroke:#000000;stroke-width:1" />
  </g>
  <g
     transform="translate(578.16739,25.641177)"
     id="g42">
    <text
       x="100"
       y="43"
       font-size="20px"
       style="font-size:20px;font-family:Cascadia, 'Segoe UI Emoji';direction:ltr;text-anchor:middle;white-space:pre;fill:#000000"
       direction="ltr"
       id="text40">Core typechecking</text>
  </g>
  <g
     id="g56"
     style="stroke-linecap:round"
     transform="translate(-40.222879,-7.859902)">
    <g
       transform="translate(505,74)"
       id="g46">
      <path
         d="m 0.33,0.83 c 16.5,0.34 82.2,0.67 98.65,0.79 M -0.95,0.23 c 16.86,0.02 85.04,-0.29 102.1,-0.41"
         id="path44"
         inkscape:connector-curvature="0"
         style="fill:none;stroke:#000000;stroke-width:1" />
    </g>
    <g
       transform="translate(505,74)"
       id="g50">
      <path
         d="M 74.41,8.53 C 82.55,5.42 90.87,3.76 100.35,-0.44 M 73.77,10.35 C 81.19,7 89.13,4.23 100.29,-0.03"
         id="path48"
         inkscape:connector-curvature="0"
         style="fill:none;stroke:#000000;stroke-width:1" />
    </g>
    <g
       transform="translate(505,74)"
       id="g54">
      <path
         d="m 74.3,-11.99 c 8.1,3.06 16.45,7.58 26.05,11.55 m -26.69,-9.73 c 7.56,2.45 15.53,5.49 26.63,10.14"
         id="path52"
         inkscape:connector-curvature="0"
         style="fill:none;stroke:#000000;stroke-width:1" />
    </g>
  </g>
</svg>
