<?xml version="1.0" encoding="UTF-8" standalone="no"?>
<svg
   xmlns:dc="http://purl.org/dc/elements/1.1/"
   xmlns:cc="http://creativecommons.org/ns#"
   xmlns:rdf="http://www.w3.org/1999/02/22-rdf-syntax-ns#"
   xmlns:svg="http://www.w3.org/2000/svg"
   xmlns="http://www.w3.org/2000/svg"
   xmlns:sodipodi="http://sodipodi.sourceforge.net/DTD/sodipodi-0.dtd"
   xmlns:inkscape="http://www.inkscape.org/namespaces/inkscape"
   version="1.1"
   viewBox="0 0 803 418"
   width="1606"
   height="836"
   id="svg110"
   sodipodi:docname="prior-work.svg"
   inkscape:version="0.92.5 (2060ec1f9f, 2020-04-08)">
  <metadata
     id="metadata114">
    <rdf:RDF>
      <cc:Work
         rdf:about="">
        <dc:format>image/svg+xml</dc:format>
        <dc:type
           rdf:resource="http://purl.org/dc/dcmitype/StillImage" />
      </cc:Work>
    </rdf:RDF>
  </metadata>
  <sodipodi:namedview
     pagecolor="#ffffff"
     bordercolor="#666666"
     borderopacity="1"
     objecttolerance="10"
     gridtolerance="10"
     guidetolerance="10"
     inkscape:pageopacity="0"
     inkscape:pageshadow="2"
     inkscape:window-width="3840"
     inkscape:window-height="2091"
     id="namedview112"
     showgrid="false"
     inkscape:zoom="2.2583732"
     inkscape:cx="767.58193"
     inkscape:cy="345.14181"
     inkscape:window-x="0"
     inkscape:window-y="41"
     inkscape:window-maximized="1"
     inkscape:current-layer="svg110" />
  <!-- svg-source:excalidraw -->
  <defs
     id="defs4">
    <style
       id="style2">
      @font-face {
        font-family: &quot;Virgil&quot;;
        src: url(&quot;https://excalidraw.com/Virgil.woff2&quot;);
      }
      @font-face {
        font-family: &quot;Cascadia&quot;;
        src: url(&quot;https://excalidraw.com/Cascadia.woff2&quot;);
      }
    </style>
  </defs>
  <g
     stroke-linecap="round"
     transform="translate(10 181) rotate(0 88 60.5)"
     id="g8">
    <path
       d="M-1.27 -1.64 C69.49 -1.16, 139.69 -2.02, 177.74 1.03 M-0.86 0.87 C46.84 -2.14, 92.45 -1.36, 177 0.23 M175.78 -1.48 C176.35 27.95, 175.44 54.06, 174.78 122.74 M176.34 -0.58 C177.33 33.88, 176.82 67.78, 175.92 121.17 M175.57 121.68 C126.56 119.68, 79.67 118.92, -0.67 119.2 M176.03 120.98 C117.08 119.09, 60.91 118.87, -0.48 120.01 M1.84 122.1 C-0.43 88.16, -0.09 51.64, 0.2 -1.32 M0.94 120.76 C-0.06 75.6, 1.63 29.82, 0.38 -0.89"
       stroke="#000000"
       stroke-width="1"
       fill="none"
       id="path6" />
  </g>
  <g
     transform="translate(52 222.5) rotate(0 41.5 12.5)"
     id="g12">
    <text
       x="0"
       y="20"
       font-family="Cascadia, Segoe UI Emoji"
       font-size="20px"
       fill="#000000"
       text-anchor="start"
       style="white-space: pre;"
       direction="ltr"
       id="text10">Parsing</text>
  </g>
  <g
     stroke-linecap="round"
     transform="translate(294 186.5) rotate(0 86.5 57.5)"
     id="g16">
    <path
       d="M-0.37 0.37 C42.38 -0.44, 84.23 1.55, 172.88 -0.7 M-0.3 -0.72 C45.74 -1.45, 92.46 -1.16, 173.88 0.87 M173.85 0.5 C173.65 25.75, 173.1 52.22, 173 115 M172.14 0 C171.71 44.45, 172.99 88.33, 173.47 115.32 M171.07 113.95 C118.7 117.72, 69.32 117.97, 1.66 113.25 M172.28 115.31 C124.08 116.11, 77.49 116.48, -0.28 115.43 M1.77 116.27 C0.89 87.82, 2.45 56.24, 1.59 1.26 M0.69 115.41 C0.39 91.21, -0.88 67.72, -0.82 -0.09"
       stroke="#000000"
       stroke-width="1"
       fill="none"
       id="path14" />
  </g>
  <g
     stroke-linecap="round"
     id="g30">
    <g
       transform="translate(184.59658213695275 243.72484459689224) rotate(0 53.07270415823615 0.4628059437396246)"
       id="g20">
      <path
         d="M-1.07 -0.61 C16.83 -0.68, 89.01 -0.9, 107.21 -0.62 M0.58 1.68 C18.29 1.78, 88.22 0.98, 106.07 0.57"
         stroke="#000000"
         stroke-width="1"
         fill="none"
         id="path18" />
    </g>
    <g
       transform="translate(184.59658213695275 243.72484459689224) rotate(0 53.07270415823615 0.4628059437396246)"
       id="g24">
      <path
         d="M77.03 10.68 C85.08 9.42, 95.96 5.1, 106.17 1.98 M78.11 11.56 C87.69 6.9, 99.5 2.83, 105.36 -0.16"
         stroke="#000000"
         stroke-width="1"
         fill="none"
         id="path22" />
    </g>
    <g
       transform="translate(184.59658213695275 243.72484459689224) rotate(0 53.07270415823615 0.4628059437396246)"
       id="g28">
      <path
         d="M76.7 -9.84 C84.81 -5.16, 95.79 -3.56, 106.17 1.98 M77.78 -8.96 C87.33 -5.95, 99.25 -2.34, 105.36 -0.16"
         stroke="#000000"
         stroke-width="1"
         fill="none"
         id="path26" />
    </g>
  </g>
  <g
     transform="translate(327.16949,230.33581)"
     id="g34">
    <text
       x="0"
       y="20"
       font-size="20px"
       style="font-size:20px;font-family:Cascadia, 'Segoe UI Emoji';direction:ltr;text-anchor:start;white-space:pre;fill:#000000"
       direction="ltr"
       id="text32">Elaboration</text>
  </g>
  <g
     stroke-linecap="round"
     transform="translate(582 185) rotate(0 105 57)"
     id="g38">
    <path
       d="M0.56 -1.25 C83.83 -0.5, 168.02 -0.93, 210.08 1.05 M0.14 0.31 C79.76 1.99, 157.32 1.65, 210.09 0.64 M209.81 -1.56 C208.72 37.49, 209.33 73.23, 209.76 113.77 M210.51 -0.02 C210.28 29.43, 209.43 57.53, 209.46 114.44 M208.94 112.78 C159.84 113.78, 112 112.92, 1.37 114.92 M209.86 113.67 C149.6 111.92, 90.9 113.47, 0.67 113.75 M0.17 113.21 C1.6 86.53, 2.55 60.19, 1.98 -1.73 M-0.23 114.8 C-1.49 81.89, -0.13 51.07, 0.01 -0.35"
       stroke="#000000"
       stroke-width="1"
       fill="none"
       id="path36" />
  </g>
  <g
     transform="translate(589.21398,205.36758)"
     id="g42">
    <text
       x="100"
       y="43"
       font-size="20px"
       style="font-size:20px;font-family:Cascadia, 'Segoe UI Emoji';direction:ltr;text-anchor:middle;white-space:pre;fill:#000000"
       direction="ltr"
       id="text40">Core typechecking</text>
  </g>
  <g
     stroke-linecap="round"
     id="g56">
    <g
       transform="translate(473 245) rotate(0 50.10250130887141 0.7154737041378212)"
       id="g46">
      <path
         d="M0.33 0.83 C16.83 1.17, 82.53 1.5, 98.98 1.62 M-0.95 0.23 C15.91 0.25, 84.09 -0.06, 101.15 -0.18"
         stroke="#000000"
         stroke-width="1"
         fill="none"
         id="path44" />
    </g>
    <g
       transform="translate(473 245) rotate(0 50.10250130887141 0.7154737041378212)"
       id="g50">
      <path
         d="M74.41 8.53 C82.55 5.42, 90.87 3.76, 100.35 -0.44 M73.77 10.35 C81.19 7, 89.13 4.23, 100.29 -0.03"
         stroke="#000000"
         stroke-width="1"
         fill="none"
         id="path48" />
    </g>
    <g
       transform="translate(473 245) rotate(0 50.10250130887141 0.7154737041378212)"
       id="g54">
      <path
         d="M74.3 -11.99 C82.4 -8.93, 90.75 -4.41, 100.35 -0.44 M73.66 -10.17 C81.22 -7.72, 89.19 -4.68, 100.29 -0.03"
         stroke="#000000"
         stroke-width="1"
         fill="none"
         id="path52" />
    </g>
  </g>
  <g
     transform="translate(69.41757297941979 227.12983312276629) rotate(0.7571688650585101 1.0824270205802122 -118.12983312276623)"
     stroke="none"
     id="g60">
    <path
       fill="#087f5b"
       d="M -10.52,-53.58 Q -10.52,-53.58 -9.85,-56.63 -9.17,-59.68 -8.89,-63.92 -8.60,-68.17 -9.11,-74.20 -9.62,-80.23 -9.83,-86.74 -10.05,-93.26 -10.13,-100.31 -10.22,-107.35 -10.25,-111.16 -10.28,-114.97 -10.30,-117.61 -10.31,-120.25 -10.31,-123.81 -10.32,-127.38 -10.31,-130.34 -10.31,-133.30 -8.99,-137.01 -7.66,-140.71 -7.13,-142.94 -6.61,-145.16 -5.71,-148.03 -4.82,-150.89 -2.43,-154.30 -0.03,-157.71 0.87,-159.78 1.79,-161.86 2.83,-164.97 3.86,-168.08 4.29,-170.76 4.72,-173.44 5.59,-175.76 6.46,-178.08 6.71,-179.44 6.96,-180.80 8.44,-182.53 9.93,-184.26 10.16,-184.42 10.40,-184.59 10.67,-184.67 10.94,-184.75 11.23,-184.74 11.52,-184.72 11.78,-184.62 12.05,-184.52 12.27,-184.34 12.49,-184.16 12.64,-183.91 12.79,-183.67 12.86,-183.39 12.92,-183.11 12.89,-182.83 12.87,-182.55 12.75,-182.29 12.63,-182.02 12.44,-181.81 12.25,-181.60 12.00,-181.47 11.75,-181.33 11.47,-181.28 11.18,-181.23 10.90,-181.27 10.62,-181.31 10.37,-181.45 10.11,-181.58 9.91,-181.78 9.71,-181.98 9.59,-182.24 9.47,-182.50 9.43,-182.78 9.40,-183.07 9.45,-183.35 9.51,-183.63 9.66,-183.87 9.80,-184.12 10.01,-184.31 10.23,-184.49 10.49,-184.60 10.76,-184.71 11.04,-184.73 11.33,-184.75 11.60,-184.68 11.88,-184.61 12.12,-184.45 12.36,-184.29 12.53,-184.07 12.71,-183.84 12.80,-183.57 12.90,-183.30 12.90,-183.02 12.91,-182.73 12.82,-182.46 12.73,-182.19 12.56,-181.96 12.39,-181.73 12.39,-181.73 12.39,-181.73 11.11,-180.77 9.83,-179.80 9.37,-178.48 8.91,-177.15 8.11,-175.08 7.31,-173.00 6.83,-170.13 6.36,-167.26 5.28,-164.02 4.19,-160.79 3.15,-158.49 2.11,-156.19 -0.10,-153.13 -2.32,-150.07 -3.18,-147.31 -4.04,-144.55 -4.61,-142.18 -5.17,-139.80 -6.42,-136.52 -7.67,-133.24 -7.66,-130.32 -7.65,-127.39 -7.64,-123.83 -7.63,-120.26 -7.61,-117.63 -7.59,-115.00 -7.54,-111.19 -7.49,-107.39 -7.39,-100.37 -7.28,-93.35 -7.05,-86.91 -6.81,-80.47 -6.26,-74.23 -5.72,-67.99 -5.98,-63.53 -6.24,-59.06 -6.86,-56.00 -7.47,-52.93 -7.53,-52.75 -7.59,-52.58 -7.69,-52.42 -7.79,-52.26 -7.93,-52.13 -8.06,-52.00 -8.23,-51.91 -8.39,-51.81 -8.57,-51.76 -8.75,-51.71 -8.94,-51.70 -9.13,-51.70 -9.31,-51.74 -9.50,-51.78 -9.67,-51.86 -9.84,-51.94 -9.98,-52.06 -10.13,-52.18 -10.24,-52.33 -10.35,-52.48 -10.43,-52.66 -10.50,-52.83 -10.53,-53.02 -10.56,-53.20 -10.54,-53.39 -10.52,-53.58 -10.52,-53.58 L -10.52,-53.58 Z"
       id="path58" />
  </g>
  <g
     transform="translate(69 10) rotate(0 24 12.5)"
     id="g64">
    <text
       x="0"
       y="20"
       font-family="Cascadia, Segoe UI Emoji"
       font-size="20px"
       fill="#087f5b"
       text-anchor="start"
       style="white-space: pre;"
       direction="ltr"
       id="text62">Agda</text>
  </g>
  <g
     transform="translate(83 307) rotate(0 -1.5 32)"
     stroke="none"
     id="g68">
    <path
       fill="#c92a2a"
       d="M 1.75,0 Q 1.75,0 1.69,4.02 1.63,8.04 1.59,12.92 1.54,17.79 1.51,22.16 1.48,26.53 1.17,31.88 0.85,37.23 0.43,43.23 0.00,49.23 -0.47,53.25 -0.94,57.26 -1.18,60.71 -1.42,64.15 -1.48,64.40 -1.55,64.65 -1.69,64.86 -1.83,65.07 -2.04,65.23 -2.24,65.39 -2.48,65.47 -2.72,65.56 -2.98,65.56 -3.24,65.56 -3.48,65.48 -3.72,65.40 -3.93,65.25 -4.14,65.10 -4.28,64.89 -4.43,64.67 -4.50,64.43 -4.57,64.18 -4.56,63.93 -4.55,63.67 -4.45,63.43 -4.36,63.19 -4.20,62.99 -4.03,62.80 -3.81,62.66 -3.60,62.53 -3.35,62.47 -3.10,62.41 -2.84,62.44 -2.59,62.46 -2.35,62.57 -2.12,62.67 -1.93,62.85 -1.74,63.02 -1.62,63.25 -1.50,63.47 -1.45,63.73 -1.41,63.98 -1.45,64.23 -1.49,64.49 -1.61,64.72 -1.72,64.94 -1.91,65.12 -2.09,65.30 -2.32,65.41 -2.56,65.52 -2.81,65.55 -3.07,65.58 -3.32,65.53 -3.57,65.47 -3.79,65.34 -4.01,65.21 -4.18,65.02 -4.35,64.83 -4.44,64.59 -4.54,64.35 -4.56,64.09 -4.57,63.84 -4.57,63.84 -4.57,63.84 -4.13,60.39 -3.68,56.95 -3.24,52.99 -2.79,49.04 -2.40,43.06 -2.00,37.07 -1.74,31.80 -1.48,26.53 -1.51,22.16 -1.54,17.79 -1.59,12.92 -1.63,8.04 -1.69,4.02 -1.75,0 -1.72,-0.20 -1.70,-0.41 -1.62,-0.61 -1.55,-0.81 -1.43,-0.98 -1.31,-1.16 -1.15,-1.30 -0.99,-1.44 -0.80,-1.54 -0.62,-1.63 -0.41,-1.68 -0.21,-1.74 0.00,-1.74 0.21,-1.74 0.41,-1.68 0.62,-1.63 0.80,-1.54 0.99,-1.44 1.15,-1.30 1.31,-1.16 1.43,-0.98 1.55,-0.81 1.62,-0.61 1.70,-0.41 1.72,-0.20 1.75,0.00 1.75,0.00 L 1.75,0 Z"
       id="path66" />
  </g>
  <g
     transform="translate(335 313) rotate(0 -131 31)"
     stroke="none"
     id="g72">
    <path
       fill="#c92a2a"
       d="M -19.21,1.35 Q -19.21,1.35 -25.30,4.82 -31.38,8.30 -36.95,10.69 -42.51,13.07 -49.40,15.25 -56.28,17.43 -62.39,18.94 -68.50,20.45 -74.74,22.24 -80.99,24.04 -87.09,25.68 -93.20,27.32 -98.48,28.32 -103.75,29.32 -108.10,30.03 -112.45,30.75 -118.52,31.63 -124.60,32.52 -127.72,32.90 -130.83,33.28 -133.71,33.72 -136.59,34.17 -139.12,34.65 -141.65,35.13 -145.64,35.92 -149.62,36.71 -152.68,37.05 -155.75,37.40 -159.67,37.83 -163.58,38.27 -166.20,39.01 -168.81,39.76 -171.31,40.39 -173.80,41.01 -174.98,41.64 -176.15,42.27 -178.62,43.08 -181.08,43.89 -183.11,44.77 -185.13,45.66 -187.92,46.65 -190.70,47.63 -192.44,48.14 -194.18,48.64 -195.91,49.11 -197.64,49.58 -200.29,50.33 -202.94,51.09 -205.28,51.75 -207.62,52.41 -209.42,53.01 -211.22,53.61 -212.76,54.19 -214.30,54.78 -216.56,55.53 -218.83,56.28 -220.88,56.89 -222.94,57.49 -224.56,58.09 -226.17,58.69 -227.30,59.28 -228.43,59.87 -229.76,60.46 -231.08,61.04 -232.61,61.37 -234.14,61.70 -235.47,62.36 -236.81,63.02 -238.05,63.25 -239.28,63.49 -241.97,61.94 -244.66,60.39 -244.66,59.95 -244.65,59.52 -244.51,59.10 -244.37,58.69 -244.11,58.34 -243.84,58.00 -243.48,57.75 -243.12,57.51 -242.70,57.40 -242.28,57.28 -241.84,57.31 -241.41,57.33 -241.00,57.49 -240.60,57.66 -240.26,57.94 -239.93,58.22 -239.71,58.60 -239.49,58.97 -239.39,59.40 -239.30,59.83 -239.35,60.26 -239.40,60.69 -239.58,61.09 -239.77,61.48 -240.07,61.80 -240.37,62.12 -240.76,62.32 -241.14,62.52 -241.57,62.59 -242.01,62.66 -242.44,62.59 -242.87,62.51 -243.25,62.31 -243.64,62.10 -243.93,61.78 -244.23,61.47 -244.41,61.07 -244.60,60.67 -244.64,60.24 -244.69,59.81 -244.59,59.38 -244.50,58.95 -244.27,58.58 -244.04,58.21 -243.71,57.93 -243.38,57.65 -242.97,57.49 -242.56,57.33 -242.13,57.30 -241.69,57.28 -241.27,57.40 -240.85,57.52 -240.49,57.77 -240.13,58.01 -239.87,58.36 -239.61,58.71 -239.47,59.12 -239.33,59.54 -239.33,59.54 -239.33,59.54 -239.46,58.96 -239.59,58.38 -238.35,58.38 -237.10,58.37 -235.98,57.98 -234.85,57.58 -233.69,57.46 -232.52,57.35 -231.22,56.90 -229.91,56.45 -228.59,55.97 -227.27,55.50 -225.59,54.97 -223.92,54.44 -221.96,53.76 -219.99,53.09 -217.77,52.20 -215.54,51.30 -213.95,50.78 -212.37,50.26 -210.54,49.62 -208.72,48.99 -206.26,48.11 -203.80,47.24 -202.04,46.79 -200.28,46.34 -199.19,46.04 -198.10,45.73 -196.51,45.69 -194.92,45.66 -193.28,45.33 -191.65,45.00 -188.98,44.02 -186.31,43.04 -184.17,42.07 -182.04,41.09 -179.70,40.26 -177.35,39.42 -175.90,38.94 -174.44,38.46 -171.99,37.85 -169.53,37.23 -166.71,36.44 -163.88,35.65 -159.96,35.22 -156.04,34.78 -153.09,34.45 -150.13,34.12 -146.14,33.33 -142.15,32.54 -139.57,32.05 -137.00,31.56 -134.08,31.11 -131.15,30.65 -128.07,30.27 -124.98,29.89 -118.93,29.01 -112.88,28.12 -108.57,27.40 -104.25,26.69 -99.08,25.70 -93.90,24.72 -87.82,23.07 -81.74,21.42 -75.45,19.59 -69.16,17.77 -63.15,16.26 -57.14,14.75 -50.40,12.58 -43.66,10.42 -38.27,8.06 -32.87,5.71 -26.83,2.18 -20.78,-1.35 -20.60,-1.42 -20.43,-1.50 -20.24,-1.53 -20.06,-1.56 -19.87,-1.54 -19.68,-1.53 -19.50,-1.47 -19.33,-1.41 -19.17,-1.31 -19.01,-1.21 -18.88,-1.07 -18.75,-0.93 -18.65,-0.77 -18.56,-0.61 -18.51,-0.43 -18.45,-0.25 -18.45,-0.06 -18.44,0.12 -18.48,0.30 -18.51,0.49 -18.59,0.66 -18.67,0.83 -18.79,0.98 -18.91,1.12 -19.06,1.23 -19.21,1.35 -19.21,1.35 L -19.21,1.35 Z"
       id="path70" />
  </g>
  <g
     transform="translate(59 383) rotate(0 18 12.5)"
     id="g76">
    <text
       x="0"
       y="20"
       font-family="Cascadia, Segoe UI Emoji"
       font-size="20px"
       fill="#c92a2a"
       text-anchor="start"
       style="white-space: pre;"
       direction="ltr"
       id="text74">Coq</text>
  </g>
  <g
     transform="translate(158 310) rotate(0 100 25.5)"
     stroke="none"
     id="g80">
    <path
       fill="#1864ab"
       d="M 0.46,-1.49 Q 0.46,-1.49 5.05,-0.02 9.64,1.44 14.14,2.64 18.64,3.84 23.98,4.93 29.32,6.02 39.34,7.64 49.36,9.25 58.82,11.10 68.29,12.95 72.87,13.73 77.44,14.51 86.68,17.75 95.93,20.99 108.69,24.65 121.45,28.30 131.44,30.42 141.43,32.55 146.57,33.74 151.71,34.94 156.51,36.32 161.31,37.70 164.80,38.87 168.29,40.03 170.95,41.12 173.62,42.20 175.84,42.92 178.06,43.65 179.30,43.83 180.54,44.02 181.57,44.40 182.60,44.79 183.75,45.14 184.90,45.49 186.27,45.92 187.64,46.36 189.54,46.82 191.45,47.29 193.12,47.75 194.79,48.22 197.52,48.48 200.26,48.73 200.61,48.83 200.96,48.94 201.27,49.14 201.57,49.35 201.79,49.65 202.01,49.94 202.13,50.29 202.24,50.64 202.24,51.01 202.24,51.38 202.12,51.73 202.00,52.07 201.77,52.37 201.55,52.66 201.24,52.86 200.94,53.07 200.58,53.16 200.23,53.26 199.86,53.24 199.49,53.21 199.15,53.08 198.81,52.94 198.53,52.70 198.25,52.46 198.06,52.14 197.87,51.82 197.80,51.46 197.72,51.10 197.76,50.74 197.81,50.37 197.96,50.04 198.12,49.70 198.37,49.44 198.63,49.17 198.96,49.00 199.28,48.83 199.65,48.78 200.01,48.72 200.37,48.78 200.74,48.84 201.06,49.02 201.39,49.19 201.64,49.46 201.89,49.73 202.04,50.07 202.19,50.40 202.23,50.77 202.27,51.13 202.19,51.49 202.10,51.85 201.91,52.17 201.72,52.48 201.44,52.72 201.16,52.95 200.81,53.09 200.47,53.22 200.10,53.24 199.73,53.26 199.73,53.26 199.73,53.26 196.75,52.85 193.76,52.45 191.75,52.02 189.75,51.59 188.01,50.90 186.28,50.20 184.90,49.66 183.51,49.12 181.63,48.08 179.76,47.04 178.50,46.60 177.24,46.15 174.93,45.39 172.62,44.64 170.04,43.59 167.46,42.54 164.02,41.39 160.58,40.24 155.85,38.88 151.11,37.52 146.00,36.33 140.88,35.14 130.80,33.00 120.71,30.86 107.88,27.19 95.04,23.52 86.01,20.35 76.98,17.17 72.38,16.40 67.77,15.62 58.35,13.80 48.92,11.98 38.84,10.38 28.76,8.78 23.34,7.71 17.92,6.64 13.33,5.47 8.75,4.30 4.14,2.89 -0.46,1.49 -0.63,1.41 -0.80,1.33 -0.95,1.21 -1.10,1.10 -1.22,0.95 -1.33,0.80 -1.41,0.63 -1.49,0.46 -1.52,0.27 -1.55,0.09 -1.54,-0.09 -1.53,-0.28 -1.48,-0.46 -1.42,-0.64 -1.32,-0.80 -1.22,-0.96 -1.09,-1.09 -0.96,-1.23 -0.80,-1.32 -0.63,-1.42 -0.46,-1.48 -0.28,-1.53 -0.09,-1.54 0.09,-1.55 0.28,-1.52 0.46,-1.49 0.46,-1.49 L 0.46,-1.49 Z"
       id="path78" />
  </g>
  <g
     transform="translate(381 310) rotate(0 -4.5 21.5)"
     stroke="none"
     id="g84">
    <path
       fill="#1864ab"
       d="M 1.67,0.41 Q 1.67,0.41 1.04,2.70 0.41,4.99 0.25,6.48 0.09,7.97 -0.36,10.08 -0.81,12.19 -1.25,14.01 -1.69,15.82 -2.21,17.97 -2.74,20.11 -2.89,21.82 -3.05,23.54 -3.44,25.51 -3.83,27.49 -4.31,30.27 -4.80,33.06 -5.31,35.44 -5.83,37.82 -6.59,40.61 -7.36,43.40 -7.46,43.66 -7.57,43.91 -7.75,44.11 -7.94,44.31 -8.18,44.45 -8.41,44.58 -8.68,44.63 -8.95,44.68 -9.22,44.65 -9.49,44.61 -9.74,44.49 -9.98,44.37 -10.18,44.17 -10.37,43.98 -10.49,43.73 -10.61,43.49 -10.65,43.22 -10.68,42.95 -10.63,42.68 -10.58,42.41 -10.45,42.17 -10.31,41.93 -10.11,41.75 -9.90,41.57 -9.65,41.46 -9.40,41.35 -9.13,41.33 -8.86,41.31 -8.59,41.38 -8.33,41.44 -8.10,41.59 -7.86,41.74 -7.69,41.95 -7.52,42.17 -7.43,42.42 -7.33,42.68 -7.33,42.95 -7.32,43.23 -7.40,43.49 -7.48,43.75 -7.64,43.97 -7.80,44.19 -8.02,44.35 -8.25,44.51 -8.51,44.59 -8.77,44.67 -9.04,44.66 -9.32,44.65 -9.57,44.56 -9.83,44.47 -10.04,44.29 -10.25,44.12 -10.40,43.89 -10.55,43.66 -10.61,43.40 -10.68,43.13 -10.66,42.86 -10.63,42.58 -10.63,42.59 -10.63,42.59 -9.69,39.90 -8.75,37.22 -8.31,34.90 -7.87,32.58 -7.47,29.72 -7.06,26.85 -6.70,25.01 -6.34,23.16 -6.08,21.29 -5.83,19.43 -5.39,17.20 -4.96,14.98 -4.49,13.29 -4.02,11.59 -3.69,9.51 -3.36,7.43 -3.04,5.82 -2.71,4.20 -2.19,1.89 -1.67,-0.41 -1.60,-0.61 -1.52,-0.80 -1.40,-0.97 -1.28,-1.15 -1.13,-1.28 -0.97,-1.42 -0.79,-1.52 -0.60,-1.61 -0.40,-1.66 -0.20,-1.71 0.00,-1.71 0.21,-1.71 0.41,-1.66 0.61,-1.61 0.80,-1.51 0.98,-1.41 1.14,-1.28 1.29,-1.14 1.41,-0.96 1.53,-0.79 1.60,-0.60 1.67,-0.40 1.70,-0.20 1.72,0.00 1.70,0.21 1.67,0.41 1.67,0.41 L 1.67,0.41 Z"
       id="path82" />
  </g>
  <g
     transform="translate(362 369) rotate(0 24 12.5)"
     id="g88">
    <text
       x="0"
       y="20"
       font-family="Cascadia, Segoe UI Emoji"
       font-size="20px"
       fill="#1864ab"
       text-anchor="start"
       style="white-space: pre;"
       direction="ltr"
       id="text86">Lean</text>
  </g>
  <g
     transform="translate(297 183) rotate(0 248 -36.5)"
     stroke="none"
     id="g92">
    <path
       fill="#087f5b"
       d="M -2.26,0 Q -2.26,0 -2.28,-1.43 -2.30,-2.87 -2.33,-4.09 -2.37,-5.31 -1.71,-7.11 -1.05,-8.90 -0.49,-10.75 0.05,-12.60 0.94,-13.87 1.84,-15.14 2.94,-16.09 4.04,-17.04 5.95,-18.35 7.87,-19.66 9.70,-20.62 11.52,-21.57 12.66,-22.45 13.80,-23.33 15.63,-24.32 17.47,-25.32 19.15,-26.07 20.83,-26.81 23.88,-27.91 26.93,-29.00 30.35,-29.75 33.76,-30.50 39.57,-31.08 45.39,-31.67 52.15,-32.18 58.91,-32.70 64.10,-32.90 69.30,-33.11 74.93,-33.48 80.55,-33.84 85.82,-34.28 91.08,-34.71 97.29,-35.75 103.50,-36.79 107.06,-37.23 110.61,-37.68 114.36,-38.43 118.11,-39.18 121.97,-40.35 125.82,-41.52 129.20,-42.59 132.58,-43.67 134.57,-44.40 136.55,-45.13 138.46,-46.26 140.36,-47.39 142.32,-48.73 144.29,-50.07 145.26,-51.19 146.22,-52.32 146.82,-53.78 147.42,-55.25 147.96,-56.78 148.50,-58.31 149.39,-60.40 150.28,-62.48 150.89,-64.22 151.51,-65.96 151.66,-67.19 151.81,-68.41 151.80,-69.80 151.78,-71.20 151.74,-71.77 151.70,-72.34 151.75,-72.60 151.80,-72.87 151.92,-73.12 152.04,-73.37 152.21,-73.58 152.38,-73.80 152.60,-73.96 152.82,-74.13 153.07,-74.23 153.32,-74.34 153.59,-74.39 153.86,-74.43 154.14,-74.41 154.41,-74.39 154.67,-74.31 154.93,-74.22 155.16,-74.08 155.39,-73.93 155.58,-73.73 155.78,-73.54 155.91,-73.30 156.05,-73.06 156.13,-72.80 156.21,-72.54 156.22,-72.26 156.23,-71.99 155.96,-70.21 155.70,-68.44 155.67,-67.00 155.65,-65.55 155.81,-62.85 155.98,-60.14 156.07,-58.38 156.17,-56.63 156.62,-54.69 157.07,-52.75 157.61,-51.34 158.16,-49.93 159.56,-48.98 160.96,-48.03 163.64,-47.11 166.31,-46.20 168.27,-45.77 170.23,-45.34 173.09,-44.83 175.96,-44.32 178.56,-44.09 181.16,-43.86 185.18,-43.45 189.21,-43.04 194.03,-42.86 198.85,-42.68 202.63,-42.60 206.41,-42.51 210.32,-42.47 214.22,-42.43 228.52,-42.69 242.81,-42.96 256.94,-43.35 271.06,-43.75 284.56,-43.92 298.05,-44.08 308.09,-44.15 318.14,-44.22 326.15,-44.25 334.16,-44.28 347.65,-43.71 361.15,-43.15 370.88,-42.91 380.62,-42.67 389.37,-42.28 398.13,-41.89 403.60,-41.43 409.06,-40.98 413.17,-40.20 417.27,-39.42 420.65,-39.10 424.03,-38.79 428.70,-38.07 433.36,-37.35 438.50,-36.47 443.64,-35.59 447.90,-34.34 452.17,-33.08 458.28,-31.11 464.39,-29.15 468.98,-27.74 473.58,-26.33 476.13,-25.44 478.69,-24.54 480.48,-23.58 482.26,-22.62 484.15,-21.32 486.04,-20.01 487.70,-18.92 489.36,-17.82 490.94,-16.81 492.53,-15.79 493.41,-15.02 494.30,-14.24 495.42,-12.94 496.54,-11.63 497.13,-9.95 497.72,-8.27 497.95,-7.06 498.18,-5.85 497.70,-4.12 497.22,-2.39 495.56,-1.46 493.90,-0.54 493.49,-0.46 493.07,-0.38 492.65,-0.43 492.23,-0.49 491.85,-0.68 491.47,-0.86 491.17,-1.16 490.87,-1.46 490.68,-1.84 490.49,-2.22 490.43,-2.64 490.38,-3.06 490.45,-3.48 490.53,-3.89 490.74,-4.26 490.95,-4.63 491.26,-4.92 491.58,-5.20 491.97,-5.37 492.36,-5.54 492.78,-5.57 493.20,-5.61 493.62,-5.51 494.03,-5.40 494.38,-5.18 494.74,-4.95 495.01,-4.62 495.27,-4.29 495.42,-3.89 495.57,-3.49 495.58,-3.07 495.59,-2.65 495.47,-2.24 495.34,-1.83 495.10,-1.49 494.85,-1.14 494.51,-0.90 494.16,-0.65 493.76,-0.52 493.35,-0.40 492.93,-0.41 492.50,-0.42 492.11,-0.57 491.71,-0.71 491.38,-0.98 491.05,-1.24 490.82,-1.60 490.59,-1.96 490.49,-2.37 490.38,-2.78 490.42,-3.20 490.45,-3.62 490.62,-4.01 490.78,-4.40 491.07,-4.72 491.35,-5.04 491.72,-5.24 492.09,-5.45 492.09,-5.45 492.09,-5.45 492.69,-6.19 493.29,-6.92 493.01,-8.75 492.74,-10.58 491.79,-11.94 490.84,-13.30 489.30,-14.38 487.76,-15.46 486.12,-16.59 484.48,-17.73 482.66,-18.95 480.85,-20.18 479.33,-21.12 477.82,-22.07 475.31,-22.94 472.81,-23.82 468.20,-25.23 463.58,-26.65 457.51,-28.60 451.43,-30.56 447.31,-31.78 443.19,-33.00 438.07,-33.87 432.96,-34.75 428.37,-35.46 423.78,-36.17 420.28,-36.50 416.78,-36.84 412.81,-37.59 408.84,-38.35 403.43,-38.80 398.01,-39.25 389.28,-39.64 380.55,-40.03 370.79,-40.26 361.04,-40.50 347.60,-41.06 334.17,-41.62 326.16,-41.59 318.16,-41.55 308.12,-41.48 298.08,-41.40 284.61,-41.22 271.14,-41.04 257.00,-40.63 242.86,-40.22 228.53,-39.93 214.20,-39.65 210.28,-39.66 206.36,-39.67 202.56,-39.72 198.75,-39.77 193.84,-39.90 188.93,-40.03 184.93,-40.36 180.94,-40.69 178.19,-40.84 175.45,-40.98 172.52,-41.36 169.59,-41.74 167.37,-42.04 165.16,-42.34 162.06,-43.16 158.97,-43.97 157.20,-45.03 155.43,-46.09 154.82,-47.27 154.20,-48.45 153.64,-50.02 153.07,-51.58 152.27,-53.93 151.47,-56.28 151.33,-57.85 151.19,-59.43 150.79,-61.52 150.39,-63.61 150.44,-64.70 150.50,-65.79 150.82,-67.90 151.14,-70.00 151.42,-71.17 151.70,-72.34 151.75,-72.60 151.80,-72.87 151.92,-73.12 152.04,-73.37 152.21,-73.58 152.38,-73.80 152.60,-73.96 152.82,-74.13 153.07,-74.23 153.32,-74.34 153.59,-74.39 153.86,-74.43 154.14,-74.41 154.41,-74.39 154.67,-74.31 154.93,-74.22 155.16,-74.08 155.39,-73.93 155.58,-73.73 155.78,-73.54 155.91,-73.30 156.05,-73.06 156.13,-72.80 156.21,-72.54 156.22,-72.26 156.23,-71.99 156.15,-71.43 156.06,-70.87 155.72,-69.27 155.37,-67.68 154.97,-66.26 154.58,-64.84 153.91,-63.07 153.24,-61.30 152.45,-59.18 151.67,-57.07 150.98,-55.48 150.29,-53.89 149.35,-52.07 148.40,-50.25 147.09,-49.07 145.78,-47.89 143.74,-46.50 141.70,-45.11 139.59,-43.88 137.48,-42.65 135.43,-41.89 133.39,-41.13 129.99,-40.05 126.60,-38.96 122.62,-37.75 118.65,-36.55 114.80,-35.77 110.95,-34.99 107.46,-34.54 103.96,-34.08 97.64,-33.01 91.32,-31.94 86.03,-31.47 80.75,-31.00 75.09,-30.60 69.43,-30.19 64.29,-29.93 59.16,-29.67 52.45,-29.08 45.73,-28.49 40.14,-27.84 34.55,-27.18 31.41,-26.37 28.27,-25.56 25.38,-24.32 22.49,-23.09 21.01,-22.43 19.53,-21.77 17.98,-20.80 16.44,-19.83 15.04,-18.79 13.64,-17.75 12.19,-16.90 10.75,-16.04 8.35,-14.00 5.96,-11.96 5.00,-10.50 4.03,-9.03 3.20,-7.10 2.37,-5.17 2.33,-4.02 2.30,-2.87 2.28,-1.43 2.26,0 2.23,0.27 2.19,0.54 2.10,0.79 2.00,1.05 1.84,1.27 1.69,1.50 1.48,1.68 1.28,1.86 1.04,1.98 0.80,2.11 0.53,2.18 0.27,2.24 -0.00,2.24 -0.27,2.24 -0.53,2.18 -0.80,2.11 -1.04,1.98 -1.28,1.86 -1.49,1.68 -1.69,1.50 -1.84,1.27 -2.00,1.05 -2.10,0.79 -2.19,0.54 -2.23,0.27 -2.26,-0.00 -2.26,-0.00 L -2.26,0 Z"
       id="path90" />
  </g>
  <g
     transform="translate(451 155) rotate(0 -183 -78.5)"
     stroke="none"
     id="g96">
    <path
       fill="#087f5b"
       d="M -2.10,-44.12 Q -2.10,-44.12 -2.67,-45.47 -3.25,-46.83 -4.15,-47.82 -5.06,-48.82 -6.72,-49.86 -8.39,-50.90 -9.91,-51.28 -11.43,-51.66 -13.60,-51.99 -15.77,-52.32 -17.83,-52.56 -19.88,-52.81 -22.28,-53.14 -24.68,-53.48 -28.21,-53.65 -31.73,-53.83 -35.54,-53.93 -39.36,-54.04 -43.91,-54.45 -48.47,-54.86 -52.07,-55.05 -55.68,-55.23 -60.37,-55.32 -65.05,-55.41 -68.49,-55.46 -71.92,-55.51 -75.74,-55.88 -79.56,-56.25 -85.43,-56.41 -91.29,-56.57 -101.00,-56.98 -110.71,-57.40 -116.84,-57.58 -122.96,-57.76 -133.34,-58.18 -143.72,-58.60 -157.04,-59.12 -170.36,-59.65 -186.94,-60.21 -203.52,-60.78 -219.77,-61.37 -236.02,-61.95 -248.69,-62.55 -261.35,-63.14 -270.19,-63.74 -279.03,-64.34 -285.39,-64.93 -291.75,-65.53 -296.47,-66.13 -301.20,-66.74 -304.70,-67.52 -308.20,-68.30 -311.44,-69.33 -314.68,-70.36 -316.96,-71.33 -319.24,-72.30 -320.61,-72.99 -321.98,-73.68 -323.96,-75.08 -325.94,-76.48 -328.48,-78.28 -331.03,-80.07 -333.32,-82.10 -335.61,-84.12 -337.37,-85.44 -339.14,-86.76 -340.81,-88.24 -342.48,-89.71 -344.57,-91.33 -346.67,-92.95 -348.19,-94.14 -349.71,-95.34 -350.94,-96.09 -352.16,-96.84 -353.34,-97.68 -354.52,-98.53 -355.38,-99.22 -356.24,-99.92 -357.84,-100.44 -359.43,-100.96 -360.41,-101.56 -361.40,-102.16 -362.76,-103.10 -364.12,-104.05 -364.78,-105.24 -365.45,-106.43 -367.19,-108.90 -368.92,-111.38 -368.94,-111.86 -368.96,-112.34 -368.83,-112.81 -368.70,-113.27 -368.42,-113.67 -368.15,-114.07 -367.76,-114.36 -367.37,-114.65 -366.91,-114.80 -366.45,-114.95 -365.97,-114.95 -365.49,-114.94 -365.03,-114.78 -364.57,-114.62 -364.19,-114.33 -363.81,-114.03 -363.54,-113.63 -363.27,-113.23 -363.15,-112.76 -363.02,-112.29 -363.05,-111.81 -363.08,-111.33 -363.26,-110.88 -363.45,-110.43 -363.76,-110.07 -364.08,-109.70 -364.49,-109.45 -364.91,-109.21 -365.38,-109.11 -365.86,-109.01 -366.34,-109.06 -366.82,-109.12 -367.26,-109.33 -367.69,-109.53 -368.04,-109.87 -368.39,-110.21 -368.61,-110.63 -368.84,-111.06 -368.91,-111.54 -368.98,-112.02 -368.90,-112.50 -368.82,-112.97 -368.59,-113.40 -368.36,-113.82 -368.01,-114.15 -367.65,-114.48 -367.21,-114.68 -366.77,-114.88 -366.29,-114.93 -365.81,-114.98 -365.34,-114.87 -364.87,-114.76 -364.45,-114.51 -364.04,-114.26 -363.73,-113.89 -363.42,-113.51 -363.25,-113.06 -363.07,-112.61 -363.07,-112.61 -363.07,-112.61 -362.29,-111.28 -361.50,-109.95 -360.95,-108.74 -360.39,-107.54 -359.06,-106.35 -357.74,-105.17 -356.70,-104.69 -355.67,-104.20 -353.96,-102.76 -352.26,-101.32 -351.26,-100.40 -350.27,-99.49 -349.08,-98.52 -347.90,-97.55 -346.46,-96.32 -345.02,-95.08 -342.85,-93.42 -340.68,-91.76 -339.09,-90.36 -337.49,-88.97 -335.63,-87.60 -333.77,-86.22 -331.58,-84.33 -329.39,-82.43 -326.83,-80.67 -324.26,-78.91 -322.32,-77.62 -320.38,-76.32 -319.29,-75.51 -318.20,-74.71 -316.04,-73.79 -313.89,-72.86 -310.76,-71.86 -307.63,-70.86 -304.25,-70.10 -300.87,-69.34 -296.19,-68.75 -291.50,-68.15 -285.18,-67.56 -278.86,-66.96 -270.04,-66.37 -261.22,-65.78 -248.58,-65.19 -235.93,-64.59 -219.68,-64.01 -203.43,-63.43 -186.84,-62.86 -170.25,-62.30 -156.93,-61.78 -143.61,-61.26 -133.25,-60.85 -122.89,-60.44 -116.74,-60.27 -110.60,-60.10 -100.91,-59.70 -91.22,-59.30 -85.26,-59.15 -79.30,-59.01 -75.60,-58.67 -71.90,-58.33 -68.46,-58.32 -65.01,-58.31 -60.28,-58.27 -55.55,-58.23 -51.88,-58.11 -48.22,-57.99 -43.77,-57.69 -39.32,-57.38 -35.48,-57.40 -31.64,-57.43 -27.99,-57.43 -24.33,-57.42 -22.01,-57.33 -19.69,-57.24 -17.40,-57.29 -15.12,-57.35 -12.49,-56.98 -9.87,-56.61 -7.98,-55.87 -6.10,-55.13 -4.68,-54.29 -3.27,-53.45 -2.47,-52.61 -1.66,-51.77 -0.35,-50.22 0.95,-48.66 1.52,-47.27 2.10,-45.87 2.17,-45.61 2.25,-45.34 2.26,-45.07 2.26,-44.80 2.21,-44.53 2.15,-44.26 2.03,-44.01 1.91,-43.76 1.74,-43.55 1.56,-43.34 1.34,-43.18 1.12,-43.01 0.87,-42.91 0.61,-42.80 0.34,-42.76 0.07,-42.72 -0.19,-42.74 -0.47,-42.77 -0.73,-42.86 -0.99,-42.94 -1.22,-43.09 -1.45,-43.24 -1.64,-43.44 -1.83,-43.64 -1.96,-43.88 -2.10,-44.12 -2.10,-44.12 L -2.10,-44.12 Z"
       id="path94" />
  </g>
  <g
     transform="translate(98 311) rotate(0 54.5 32.5)"
     stroke="none"
     id="g100">
    <path
       fill="#a61e4d"
       d="M 0.83,-1.32 Q 0.83,-1.32 6.03,2.00 11.24,5.33 16.90,8.56 22.56,11.80 33.07,17.21 43.58,22.61 50.35,25.64 57.11,28.66 63.50,31.80 69.89,34.94 74.37,37.39 78.85,39.84 82.60,43.16 86.35,46.47 91.89,50.37 97.44,54.26 101.01,57.06 104.58,59.85 107.19,61.90 109.81,63.95 109.96,64.11 110.10,64.27 110.19,64.46 110.28,64.66 110.30,64.87 110.32,65.09 110.27,65.29 110.22,65.50 110.10,65.68 109.99,65.87 109.83,66.00 109.66,66.14 109.46,66.21 109.26,66.29 109.05,66.30 108.83,66.31 108.63,66.25 108.42,66.19 108.25,66.07 108.07,65.94 107.94,65.77 107.82,65.60 107.75,65.39 107.69,65.19 107.69,64.98 107.69,64.76 107.76,64.56 107.83,64.36 107.97,64.19 108.10,64.02 108.28,63.90 108.46,63.79 108.66,63.73 108.87,63.68 109.08,63.69 109.30,63.71 109.50,63.79 109.69,63.87 109.85,64.01 110.02,64.15 110.12,64.34 110.23,64.52 110.27,64.73 110.32,64.94 110.29,65.15 110.26,65.37 110.17,65.56 110.08,65.75 109.93,65.91 109.78,66.06 109.59,66.16 109.40,66.26 109.19,66.29 108.98,66.32 108.77,66.28 108.55,66.24 108.37,66.14 108.18,66.04 108.18,66.04 108.18,66.04 105.56,63.99 102.94,61.94 99.42,59.19 95.91,56.44 90.24,52.46 84.57,48.48 81.06,45.34 77.54,42.20 73.12,39.80 68.70,37.39 62.34,34.29 55.99,31.19 49.14,28.16 42.30,25.12 31.71,19.72 21.13,14.31 15.39,11.08 9.64,7.85 4.40,4.59 -0.83,1.32 -0.97,1.20 -1.12,1.08 -1.23,0.93 -1.35,0.78 -1.42,0.60 -1.50,0.43 -1.53,0.24 -1.56,0.06 -1.54,-0.12 -1.53,-0.31 -1.47,-0.49 -1.41,-0.66 -1.31,-0.82 -1.21,-0.98 -1.07,-1.11 -0.93,-1.24 -0.77,-1.34 -0.61,-1.43 -0.43,-1.48 -0.25,-1.54 -0.06,-1.54 0.12,-1.55 0.30,-1.51 0.49,-1.48 0.66,-1.40 0.83,-1.32 0.83,-1.32 L 0.83,-1.32 Z"
       id="path98" />
  </g>
  <g
     transform="translate(315 306) rotate(0 -23.5 34.5)"
     stroke="none"
     id="g104">
    <path
       fill="#a61e4d"
       d="M 57.97,1.22 Q 57.97,1.22 55.72,2.96 53.47,4.71 50.20,6.57 46.92,8.42 43.31,10.26 39.70,12.09 35.55,14.60 31.40,17.12 27.39,19.61 23.39,22.10 20.33,23.87 17.27,25.65 11.46,28.20 5.65,30.76 -1.73,33.27 -9.13,35.77 -14.05,37.19 -18.98,38.61 -22.82,39.91 -26.65,41.21 -30.05,42.46 -33.46,43.72 -38.09,44.98 -42.71,46.25 -45.52,47.12 -48.33,48.00 -50.81,49.06 -53.28,50.12 -56.57,51.64 -59.86,53.15 -63.95,54.87 -68.05,56.59 -72.09,57.70 -76.13,58.81 -79.14,59.62 -82.16,60.44 -83.79,61.16 -85.42,61.89 -87.46,62.86 -89.49,63.83 -91.78,64.64 -94.07,65.44 -95.88,66.15 -97.69,66.86 -98.92,67.26 -100.16,67.67 -101.25,68.86 -102.33,70.06 -102.55,70.30 -102.76,70.54 -103.04,70.69 -103.32,70.85 -103.63,70.91 -103.95,70.97 -104.26,70.92 -104.58,70.88 -104.86,70.74 -105.15,70.60 -105.38,70.37 -105.60,70.14 -105.74,69.86 -105.88,69.57 -105.93,69.25 -105.97,68.94 -105.91,68.62 -105.85,68.31 -105.69,68.03 -105.53,67.75 -105.29,67.54 -105.05,67.33 -104.76,67.20 -104.47,67.08 -104.15,67.05 -103.83,67.03 -103.52,67.11 -103.21,67.18 -102.94,67.36 -102.67,67.53 -102.47,67.78 -102.27,68.03 -102.16,68.33 -102.06,68.63 -102.05,68.95 -102.04,69.27 -102.13,69.57 -102.23,69.88 -102.42,70.14 -102.60,70.39 -102.86,70.58 -103.12,70.77 -103.43,70.86 -103.73,70.95 -104.05,70.94 -104.37,70.93 -104.67,70.82 -104.97,70.71 -105.22,70.51 -105.47,70.31 -105.64,70.04 -105.81,69.77 -105.89,69.46 -105.96,69.15 -105.94,68.83 -105.91,68.51 -105.78,68.22 -105.66,67.93 -105.66,67.93 -105.66,67.93 -103.39,66.23 -101.12,64.53 -99.91,64.35 -98.69,64.17 -96.84,63.51 -94.99,62.85 -92.85,62.09 -90.71,61.32 -88.60,60.28 -86.50,59.25 -84.67,58.57 -82.85,57.90 -79.83,57.09 -76.82,56.27 -72.94,55.22 -69.07,54.16 -65.01,52.46 -60.96,50.76 -57.64,49.23 -54.32,47.70 -51.72,46.59 -49.11,45.48 -46.26,44.59 -43.40,43.70 -38.89,42.47 -34.38,41.24 -30.94,39.97 -27.50,38.70 -23.61,37.38 -19.72,36.06 -14.85,34.65 -9.98,33.25 -2.70,30.78 4.57,28.30 10.24,25.81 15.91,23.32 18.93,21.55 21.94,19.78 25.95,17.27 29.96,14.76 34.19,12.17 38.41,9.58 41.95,7.75 45.48,5.91 48.55,4.14 51.62,2.37 53.82,0.57 56.02,-1.22 56.18,-1.32 56.34,-1.41 56.52,-1.47 56.70,-1.53 56.89,-1.54 57.08,-1.56 57.26,-1.52 57.45,-1.49 57.62,-1.41 57.79,-1.34 57.94,-1.22 58.09,-1.11 58.21,-0.96 58.33,-0.81 58.40,-0.64 58.48,-0.47 58.52,-0.29 58.55,-0.10 58.54,0.08 58.53,0.26 58.48,0.45 58.42,0.63 58.33,0.79 58.23,0.95 58.10,1.08 57.97,1.22 57.97,1.22 L 57.97,1.22 Z"
       id="path102" />
  </g>
  <g
     transform="translate(176 378) rotate(0 30 12.5)"
     id="g108">
    <text
       x="0"
       y="20"
       font-family="Cascadia, Segoe UI Emoji"
       font-size="20px"
       fill="#a61e4d"
       text-anchor="start"
       style="white-space: pre;"
       direction="ltr"
       id="text106">Idris</text>
  </g>
</svg>
