<svg xmlns="http://www.w3.org/2000/svg" width="624" height="400"><style>line, path, circle, rect, polygon{stroke:black;stroke-width:2;stroke-opacity:1;fill-opacity:1;stroke-linecap:round;stroke-linejoin:miter;}text{font-family:Iosevka Fixed, monospace;font-size:14px;}rect.backdrop{stroke:none;fill:white;}.broken{stroke-dasharray:8;}.filled{fill:black;}.bg_filled{fill:white;}.nofill{fill:white;}.end_marked_arrow{marker-end:url(#arrow);}.start_marked_arrow{marker-start:url(#arrow);}.end_marked_diamond{marker-end:url(#diamond);}.start_marked_diamond{marker-start:url(#diamond);}.end_marked_circle{marker-end:url(#circle);}.start_marked_circle{marker-start:url(#circle);}.end_marked_open_circle{marker-end:url(#open_circle);}.start_marked_open_circle{marker-start:url(#open_circle);}.end_marked_big_open_circle{marker-end:url(#big_open_circle);}.start_marked_big_open_circle{marker-start:url(#big_open_circle);}<!--separator--></style><defs><marker id="arrow" viewBox="-2 -2 8 8" refX="4" refY="2" markerWidth="7" markerHeight="7" orient="auto-start-reverse"><polygon points="0,0 0,4 4,2 0,0"></polygon></marker><marker id="diamond" viewBox="-2 -2 8 8" refX="4" refY="2" markerWidth="7" markerHeight="7" orient="auto-start-reverse"><polygon points="0,2 2,0 4,2 2,4 0,2"></polygon></marker><marker id="circle" viewBox="0 0 8 8" refX="4" refY="4" markerWidth="7" markerHeight="7" orient="auto-start-reverse"><circle cx="4" cy="4" r="2" class="filled"></circle></marker><marker id="open_circle" viewBox="0 0 8 8" refX="4" refY="4" markerWidth="7" markerHeight="7" orient="auto-start-reverse"><circle cx="4" cy="4" r="2" class="bg_filled"></circle></marker><marker id="big_open_circle" viewBox="0 0 8 8" refX="4" refY="4" markerWidth="7" markerHeight="7" orient="auto-start-reverse"><circle cx="4" cy="4" r="3" class="bg_filled"></circle></marker></defs><rect class="backdrop" x="0" y="0" width="624" height="400"></rect><rect x="380" y="264" width="80" height="64" class="solid nofill" rx="0"></rect><text x="394" y="300" >Solver1</text><text x="178" y="28" >reads</text><text x="226" y="28" >metas,</text><text x="282" y="28" >defs</text><text x="322" y="28" >from</text><text x="426" y="28" >Typechecker</text><text x="426" y="44" >infer</text><line x1="480" y1="32" x2="472" y2="48" class="solid"></line><text x="490" y="44" >check</text><text x="538" y="44" >functions</text><text x="338" y="108" >raises</text><text x="338" y="124" >a</text><text x="354" y="124" >constraint</text><text x="82" y="140" >write</text><text x="130" y="140" >solution</text><text x="346" y="172" >provides</text><text x="418" y="172" >a</text><text x="410" y="188" >to</text><text x="26" y="204" >read</text><text x="66" y="204" >metas,</text><text x="26" y="220" >existing</text><text x="98" y="220" >constraints?</text><text x="226" y="236" >provides</text><text x="226" y="252" >solution</text><text x="26" y="44" >State</text><text x="210" y="156" >Solver</text><text x="210" y="172" >Director</text><text x="434" y="172" >constraint</text><text x="434" y="188" >solve</text><text x="210" y="252" >a</text><text x="258" y="348" >Solver2</text><g><line x1="4" y1="8" x2="84" y2="8" class="solid"></line><line x1="4" y1="8" x2="4" y2="72" class="solid"></line><line x1="84" y1="8" x2="84" y2="72" class="solid"></line><line x1="84" y1="40" x2="408" y2="40" class="solid"></line><polygon points="408,36 416,40 408,44" class="filled"></polygon><line x1="4" y1="72" x2="84" y2="72" class="solid"></line><line x1="28" y1="72" x2="28" y2="184" class="solid"></line><line x1="28" y1="184" x2="184" y2="184" class="solid"></line><polygon points="184,180 192,184 184,188" class="filled"></polygon></g><g><line x1="420" y1="8" x2="612" y2="8" class="solid"></line><line x1="420" y1="8" x2="420" y2="56" class="solid"></line><line x1="612" y1="8" x2="612" y2="56" class="solid"></line><line x1="420" y1="56" x2="612" y2="56" class="solid"></line><line x1="484" y1="56" x2="484" y2="136" class="solid"></line><polygon points="320,132 312,136 320,140" class="filled"></polygon><line x1="320" y1="136" x2="484" y2="136" class="solid"></line></g><g><polygon points="56,92 60,80 64,92" class="filled"></polygon><line x1="60" y1="92" x2="60" y2="152" class="solid"></line><line x1="196" y1="120" x2="308" y2="120" class="solid"></line><line x1="196" y1="120" x2="196" y2="200" class="solid"></line><line x1="308" y1="120" x2="308" y2="200" class="solid"></line><line x1="60" y1="152" x2="196" y2="152" class="solid"></line><line x1="308" y1="184" x2="396" y2="184" class="solid"></line><line x1="396" y1="184" x2="396" y2="244" class="solid"></line><line x1="196" y1="200" x2="308" y2="200" class="solid"></line><polygon points="392,244 400,244 396,256" class="filled"></polygon></g><g><polygon points="288,220 292,208 296,220" class="filled"></polygon><line x1="292" y1="220" x2="292" y2="312" class="solid"></line><line x1="244" y1="312" x2="332" y2="312" class="solid"></line><line x1="244" y1="312" x2="244" y2="376" class="solid"></line><line x1="332" y1="312" x2="332" y2="376" class="solid"></line><line x1="244" y1="376" x2="332" y2="376" class="solid"></line></g></svg>